Coordinates
version=1
nRows=17
nColumns=24
inDegrees=yes

Units are S.I. units (second, meters, Newtons, ...)
Angles are in degrees.

endheader
time	pelvis_tilt	pelvis_list	pelvis_rotation	pelvis_tx	pelvis_ty	pelvis_tz	hip_flexion_r	hip_adduction_r	hip_rotation_r	knee_angle_r	ankle_angle_r	subtalar_angle_r	mtp_angle_r	hip_flexion_l	hip_adduction_l	hip_rotation_l	knee_angle_l	ankle_angle_l	subtalar_angle_l	mtp_angle_l	lumbar_extension	lumbar_bending	lumbar_rotation
      0.95750000	      0.15834149	      0.11778674	     -0.84003794	     -0.09969505	      0.97667701	      0.30709735	    -12.45669194	      3.32417424	     -4.96063376	     -9.73092651	     17.50439433	      1.60708419	      0.60165636	     25.74666699	      2.21159046	     -2.91378399	    -10.59563268	      2.40234748	     -4.37162481	     -3.16433387	     -1.06609515	      3.53768717	      7.21317296
      0.96166667	      0.08601301	      0.18223855	     -0.85227215	     -0.09384527	      0.97603041	      0.30672314	    -12.41879128	      3.19141486	     -4.96269598	    -10.38485302	     17.62050837	      1.65943299	      0.62987808	     25.69816304	      2.37410319	     -2.81859890	    -10.54853876	      2.18133147	     -4.41264915	     -3.03216268	     -0.96002783	      3.47575453	      7.23676157
      0.96583333	      0.01184522	      0.24645405	     -0.86584058	     -0.08796686	      0.97543734	      0.30635402	    -12.35510958	      3.05852986	     -4.94625890	    -11.08540874	     17.71107187	      1.67026014	      0.66597654	     25.64936114	      2.53567493	     -2.69882593	    -10.57259485	      1.93517566	     -4.50847623	     -2.88934165	     -0.83400542	      3.41126368	      7.26520361
      0.97000000	     -0.05293684	      0.32676803	     -0.87552357	     -0.08205611	      0.97490398	      0.30597634	    -12.27739192	      2.90675292	     -4.92188099	    -11.83542771	     17.77765334	      1.66602795	      0.71625688	     25.58680964	      2.71552845	     -2.55660687	    -10.65680873	      1.65685254	     -4.64797645	     -2.72236775	     -0.72771747	      3.33322562	      7.28823067
      0.97416667	     -0.13903448	      0.39911541	     -0.88164280	     -0.07613515	      0.97438701	      0.30559943	    -12.14866511	      2.76569856	     -4.87222815	    -12.63493128	     17.80233216	      1.62514700	      0.77929567	     25.55364405	      2.88616996	     -2.39511305	    -10.81407515	      1.35761054	     -4.81952769	     -2.54438448	     -0.58874384	      3.25809128	      7.30196013
      0.97833333	     -0.24433617	      0.46489097	     -0.88689981	     -0.07019356	      0.97389024	      0.30522017	    -11.96828353	      2.63180724	     -4.80294264	    -13.49462605	     17.79147388	      1.54340035	      0.85793633	     25.54439033	      3.04859141	     -2.22118433	    -11.03099517	      1.03654982	     -5.02047469	     -2.35287749	     -0.42312240	      3.18287348	      7.30958056
      0.98250000	     -0.31551672	      0.55617897	     -0.88868798	     -0.06421318	      0.97349310	      0.30482752	    -11.79959341	      2.46773214	     -4.73873245	    -14.40141591	     17.74610470	      1.45388498	      0.96429808	     25.48492362	      3.23918677	     -2.03308919	    -11.26778863	      0.67663268	     -5.27421748	     -2.13412679	     -0.29351367	      3.08006852	      7.31180981
      0.98666667	     -0.40792531	      0.64185230	     -0.88718303	     -0.05821818	      0.97310883	      0.30442574	    -11.57498685	      2.30963724	     -4.66074690	    -15.36673183	     17.64342634	      1.34554826	      1.08816628	     25.45316932	      3.42204167	     -1.84094332	    -11.55321684	      0.30924679	     -5.53147284	     -1.91630223	     -0.13623179	      2.98754636	      7.29993375
      0.99083333	     -0.48848030	      0.73439032	     -0.88067087	     -0.05220399	      0.97278026	      0.30402097	    -11.33071065	      2.14352908	     -4.58314446	    -16.39046990	     17.49653010	      1.22642174	      1.24207611	     25.40625130	      3.61154616	     -1.64063777	    -11.86595748	     -0.07814227	     -5.82652143	     -1.68602335	      0.00911980	      2.88022628	      7.27824144
      0.99500000	     -0.57373535	      0.82543322	     -0.86626146	     -0.04618266	      0.97248395	      0.30359514	    -11.04426189	      1.97694204	     -4.51406847	    -17.47728719	     17.29940306	      1.10942189	      1.47011107	     25.37123841	      3.80162069	     -1.43449272	    -12.21863321	     -0.48191903	     -6.18454164	     -1.39693095	      0.16258904	      2.77273843	      7.25264220
      0.99916667	     -0.65539400	      0.93165256	     -0.84392352	     -0.04015039	      0.97222435	      0.30314181	    -10.72354963	      1.78956624	     -4.46041966	    -18.62980499	     17.04153178	      1.00029559	      1.80935276	     25.33558578	      4.00850671	     -1.23184135	    -12.59850770	     -0.89012745	     -6.57218640	     -1.03207693	      0.30136589	      2.65451081	      7.21575462
      1.00333333	     -0.73342141	      1.05163520	     -0.84309693	     -0.03406972	      0.97204040	      0.30273519	    -10.36784314	      1.58387645	     -4.37244079	    -19.84644320	     16.69914557	      0.86508860	      2.05157291	     25.26543022	      4.20980246	     -1.07384980	    -12.93664279	     -1.28974729	     -6.79907271	     -0.81254968	      0.46617681	      2.51016679	      7.16230068
      1.00750000	     -0.76500019	      1.19603174	     -0.80073698	     -0.02797764	      0.97189722	      0.30222126	    -10.02116603	      1.32703286	     -4.45366546	    -21.12311483	     16.18149889	      0.92279132	      6.67900333	     25.17676697	      4.45276581	     -0.93012401	    -13.34622773	     -1.71219236	     -7.17527686	      2.66347619	      0.55597537	      2.33718886	      7.07962105
      1.01166667	     -0.84569060	      1.30543161	     -0.78805725	     -0.02194135	      0.97176511	      0.30179224	     -9.58224011	      1.13585965	     -4.32271626	    -22.46544143	     15.75372432	      0.64669809	      6.75515631	     25.13687824	      4.64311669	     -0.77797781	    -13.76067043	     -2.09228968	     -7.51851729	      2.64882169	      0.70594151	      2.20656919	      7.03757324
      1.01583333	     -0.91422708	      1.44451815	     -0.76943840	     -0.01587902	      0.97167542	      0.30132491	     -9.10644645	      0.89335460	     -4.27341921	    -23.88726491	     15.21103316	      0.54403587	      6.87148928	     25.07146428	      4.86443725	     -0.63303580	    -14.16060099	     -2.42831982	     -7.81866586	      2.64254214	      0.85385907	      2.04407156	      6.96582683
      1.02000000	     -0.96640683	      1.60465644	     -0.73756088	     -0.00984317	      0.97160793	      0.30080306	     -8.59793245	      0.61295088	     -4.27540990	    -25.39227250	     14.64645579	      0.54865575	      7.20556862	     24.99582890	      5.11974736	     -0.45308559	    -14.58449269	     -2.70644549	     -8.26286050	      2.63912729	      0.96657957	      1.84980948	      6.87896464
      1.02416667	     -0.99750566	      1.77729992	     -0.70376505	     -0.00377989	      0.97160701	      0.30028526	     -8.08127031	      0.30708116	     -4.30560746	    -26.92377162	     13.86561147	      0.51229666	     11.61310272	     24.90129036	      5.37164764	     -0.37170577	    -15.01946717	     -2.97631482	     -8.49818730	      2.62865980	      1.06369570	      1.64218654	      6.77901867
